<svg width="694" height="428" viewBox="0 0 694 428" fill="none" xmlns="http://www.w3.org/2000/svg">
<path opacity="0.1" d="M337.281 96.0332C365.893 91.9771 392.971 80.7954 416.321 63.9132C451.291 38.5899 524.301 -4.49265 594.022 16.9938C690.273 46.4828 690.711 132.1 665.607 178.581C640.613 225.062 462.911 361.215 232.59 339.619C26.4952 320.216 -13.6275 98.3354 96.2165 58.1031C191.7 23.352 224.149 112.038 337.281 96.0332Z" fill="#605BFF"/>
<path d="M661.333 223.417C657.034 223.417 653.549 219.932 653.549 215.634C653.549 211.335 657.034 207.85 661.333 207.85C665.631 207.85 669.116 211.335 669.116 215.634C669.116 219.932 665.631 223.417 661.333 223.417Z" fill="#FFCDB3"/>
<path opacity="0.2" d="M339.046 427.224C214.205 427.224 113 423.592 113 419.112C113 414.632 214.205 411 339.046 411C463.888 411 565.093 414.632 565.093 419.112C565.093 423.592 463.888 427.224 339.046 427.224Z" fill="#605BFF"/>
<path d="M388.038 104.475L387.709 106.229L387.271 108.092L386.394 111.929C385.846 114.56 385.188 117.081 384.53 119.712C383.872 122.343 383.215 124.865 382.447 127.386C381.789 129.907 381.022 132.429 380.255 134.95C379.487 137.472 378.61 139.883 377.733 142.295C376.856 144.707 375.979 147.119 374.993 149.311C374.006 151.613 373.019 153.806 371.923 155.998C370.827 158.081 369.731 160.164 368.525 161.918C367.319 163.782 366.113 165.426 365.017 166.741C363.811 168.057 362.715 169.153 361.728 169.701C361.29 170.03 360.851 170.249 360.522 170.359C360.193 170.469 359.974 170.578 359.645 170.688H359.536L359.097 170.797L358.111 171.017L356.137 171.346L352.081 172.003L348.025 172.661L343.969 173.319C341.228 173.757 338.597 174.196 335.857 174.525L331.801 175.182C330.485 175.402 329.06 175.621 327.744 175.84L325.662 176.169L323.579 176.498C322.921 176.608 322.263 176.717 321.496 176.827C320.838 176.936 320.071 177.046 319.523 177.156L318.974 177.265C312.616 178.471 308.341 184.61 309.547 191.078C310.533 196.34 314.918 200.177 320.071 200.615L322.263 200.835C323.031 200.944 323.688 200.944 324.456 201.054C325.881 201.164 327.416 201.273 328.841 201.383L331.033 201.492L333.226 201.602C334.651 201.602 336.076 201.712 337.611 201.712C339.036 201.712 340.571 201.712 341.996 201.712C343.421 201.712 344.956 201.712 346.381 201.712C349.341 201.712 352.191 201.602 355.151 201.492C356.576 201.383 358.111 201.383 359.536 201.273L361.728 201.164L362.824 201.054H363.372L364.359 200.944C366.88 200.615 369.402 199.958 371.704 199.081C374.006 198.204 376.089 197.107 378.062 196.011C380.035 194.805 381.789 193.599 383.324 192.174C384.969 190.859 386.394 189.434 387.709 188.118C389.025 186.693 390.231 185.268 391.436 183.843C392.533 182.418 393.629 180.993 394.616 179.567C396.589 176.717 398.343 173.867 399.878 170.907C401.412 168.057 402.837 165.097 404.043 162.247C405.359 159.397 406.455 156.437 407.551 153.586C408.648 150.736 409.634 147.776 410.621 144.926C411.498 142.076 412.375 139.116 413.252 136.266C414.019 133.415 414.786 130.456 415.444 127.605C416.102 124.755 416.76 121.795 417.417 118.835C417.746 117.41 417.966 115.875 418.294 114.45L418.733 112.258L418.952 111.162L419.171 109.846C420.487 101.295 414.567 93.2928 406.017 91.9773C397.685 90.6618 389.902 96.2527 388.257 104.365L388.038 104.475Z" fill="#FFAA8C"/>
<path d="M421.583 113.683C419.5 120.809 411.059 145.036 403.605 157.094L370.827 141.637C370.827 141.637 382.009 115.766 387.819 99.4317C389.682 94.1697 393.848 89.8944 399.22 88.0308C402.837 86.8249 407.113 86.496 411.936 88.7981C421.364 93.2927 422.351 103.707 422.241 108.859C422.351 110.613 422.022 112.148 421.583 113.683Z" fill="#605BFF"/>
<path d="M297.267 367.902L288.607 381.934L272.163 374.699L279.618 359.571L297.267 367.902Z" fill="#FFAA8C"/>
<path d="M220.042 382.237L282.199 409.753C283.076 409.095 283.843 407.999 284.501 406.683C287.242 401.64 289.215 392.432 290.75 386.731C290.969 386.074 291.078 385.416 291.298 384.868C291.627 383.881 291.846 383.114 292.065 382.675C293.929 378.4 289.872 377.413 289.872 377.413C280.883 380.812 277.814 368.424 272.333 369.63C272.333 369.63 269.921 370.068 263.014 372.371C256.108 374.673 246.351 373.796 237.91 373.686C226.948 373.467 222.673 376.207 220.919 378.619C219.713 380.483 220.042 382.237 220.042 382.237Z" fill="#EF37FF"/>
<path d="M220.093 382.702L282.25 410.218C283.127 409.56 283.894 408.464 284.552 407.148L220.97 378.974C219.764 380.948 220.093 382.702 220.093 382.702Z" fill="#605BFF"/>
<path d="M276.002 407.477L277.865 408.244C276.988 405.284 276.659 401.338 278.962 396.843C282.031 390.814 287.512 388.293 291.02 387.306C291.239 386.648 291.349 385.99 291.568 385.442C287.841 386.319 281.154 388.841 277.536 396.076C275.234 400.461 275.234 404.298 276.002 407.477Z" fill="#605BFF"/>
<path d="M262.517 377.001C262.956 377.221 263.504 377.111 263.833 376.673C264.162 376.234 264.162 375.467 263.614 375.138L260.106 372.397C259.667 372.068 258.9 372.068 258.571 372.616C258.242 373.055 258.242 373.822 258.79 374.151L262.298 376.892C262.408 376.892 262.517 376.892 262.517 377.001Z" fill="#605BFF"/>
<path d="M267.889 375.466C268.328 375.685 268.876 375.576 269.205 375.137C269.534 374.699 269.534 373.932 268.986 373.603L265.478 370.862C265.039 370.533 264.272 370.533 263.943 371.081C263.614 371.52 263.614 372.287 264.162 372.616L267.67 375.357C267.67 375.357 267.78 375.357 267.889 375.466Z" fill="#605BFF"/>
<path d="M257.693 377.55C258.132 377.769 258.68 377.659 259.009 377.221C259.338 376.782 259.338 376.015 258.79 375.686L255.282 372.945C254.843 372.616 254.076 372.616 253.747 373.165C253.418 373.603 253.418 374.37 253.966 374.699L257.474 377.44C257.474 377.44 257.584 377.44 257.693 377.55Z" fill="#605BFF"/>
<path d="M252.871 377.988C253.309 378.207 253.857 378.097 254.186 377.659C254.515 377.22 254.515 376.453 253.967 376.124L250.459 373.384C250.02 373.055 249.253 373.055 248.924 373.603C248.595 374.041 248.595 374.809 249.143 375.138L252.651 377.878C252.651 377.878 252.761 377.878 252.871 377.988Z" fill="#605BFF"/>
<path d="M247.718 378.098C248.157 378.317 248.705 378.207 249.034 377.769C249.362 377.33 249.362 376.563 248.814 376.234L245.306 373.493C244.868 373.164 244.1 373.164 243.772 373.713C243.443 374.151 243.443 374.918 243.991 375.247L247.499 377.988C247.499 377.988 247.608 378.098 247.718 378.098Z" fill="#605BFF"/>
<path d="M242.346 377.768C242.785 377.988 243.333 377.878 243.662 377.44C243.99 377.001 243.99 376.234 243.442 375.905L239.934 373.164C239.496 372.835 238.728 372.835 238.4 373.383C238.071 373.822 238.071 374.589 238.619 374.918L242.127 377.659C242.127 377.659 242.236 377.768 242.346 377.768Z" fill="#605BFF"/>
<path d="M335.856 231.749C341.666 226.048 387.16 213.332 417.417 221.773C420.925 228.46 425.31 245.342 414.457 261.018C374.663 267.486 352.519 280.86 352.519 280.86C352.519 280.86 338.377 313.419 330.046 325.368C321.714 337.317 302.42 375.357 302.42 375.357L273.48 362.969C273.589 362.969 320.18 247.206 335.856 231.749Z" fill="#1A060A"/>
<path d="M305.599 368.231C305.49 368.231 305.38 368.231 305.27 368.122L276.987 356.392C276.549 356.173 276.329 355.734 276.549 355.296C276.768 354.857 277.206 354.638 277.645 354.857L305.928 366.587C306.367 366.806 306.586 367.245 306.367 367.683C306.257 368.012 305.928 368.231 305.599 368.231Z" fill="#35252F"/>
<path d="M300.885 365.819C300.775 365.819 300.666 365.819 300.556 365.71C300.118 365.49 299.898 365.052 300.118 364.613C300.227 364.504 306.147 349.704 319.96 328.657C333.663 307.828 348.024 272.529 348.243 272.2C348.462 271.761 348.901 271.542 349.339 271.761C349.778 271.981 349.997 272.419 349.778 272.858C349.668 273.186 335.197 308.595 321.385 329.534C307.682 350.362 301.762 365.052 301.762 365.162C301.433 365.6 301.214 365.819 300.885 365.819Z" fill="#35252F"/>
<path d="M370.388 370.314L368.196 386.758H350.108L350.875 369.876L370.388 370.314Z" fill="#FFAA8C"/>
<path d="M305.659 414.686H373.736C374.284 413.809 374.503 412.493 374.613 410.959C375.051 405.148 373.188 396.05 372.311 390.24C372.201 389.582 372.091 388.924 371.982 388.376C371.872 387.389 371.762 386.622 371.762 385.964C371.762 381.25 367.597 382.018 367.597 382.018C360.69 388.814 352.907 378.619 348.303 382.018C348.303 382.018 346.329 383.443 340.958 388.266C335.586 393.09 326.378 396.379 318.594 399.558C308.509 403.833 305.659 407.999 305.111 410.849C304.672 413.261 305.659 414.686 305.659 414.686Z" fill="#EF37FF"/>
<path d="M305.71 415.151H373.787C374.335 414.274 374.554 412.958 374.664 411.423H305.161C304.723 413.725 305.71 415.151 305.71 415.151Z" fill="#605BFF"/>
<path d="M366.88 415.151H368.853C366.88 412.848 364.906 409.34 365.235 404.298C365.564 397.611 369.62 393.006 372.361 390.704C372.251 390.046 372.142 389.389 372.032 388.841C368.962 391.143 363.92 396.185 363.481 404.298C363.372 409.012 365.016 412.629 366.88 415.151Z" fill="#605BFF"/>
<path d="M342.324 392.678C342.872 392.678 343.31 392.349 343.42 391.801C343.53 391.252 343.201 390.595 342.653 390.485L338.377 389.389C337.829 389.279 337.171 389.608 337.062 390.156C336.952 390.704 337.281 391.362 337.829 391.472L342.104 392.568C342.104 392.678 342.214 392.678 342.324 392.678Z" fill="#605BFF"/>
<path d="M346.49 389.169C347.039 389.169 347.477 388.84 347.587 388.292C347.696 387.744 347.367 387.086 346.819 386.977L342.544 385.88C341.996 385.771 341.338 386.1 341.228 386.648C341.119 387.196 341.448 387.854 341.996 387.963L346.271 389.059C346.381 389.169 346.381 389.169 346.49 389.169Z" fill="#605BFF"/>
<path d="M338.05 395.198C338.598 395.198 339.037 394.869 339.146 394.321C339.256 393.773 338.927 393.115 338.379 393.005L334.104 391.909C333.556 391.8 332.898 392.128 332.788 392.677C332.679 393.225 333.008 393.882 333.556 393.992L337.831 395.088C337.831 395.198 337.941 395.198 338.05 395.198Z" fill="#605BFF"/>
<path d="M333.773 397.611C334.321 397.611 334.76 397.282 334.869 396.734C334.979 396.186 334.65 395.528 334.102 395.418L329.827 394.322C329.279 394.212 328.621 394.541 328.511 395.089C328.402 395.637 328.73 396.295 329.279 396.405L333.554 397.501C333.554 397.501 333.664 397.611 333.773 397.611Z" fill="#605BFF"/>
<path d="M329.169 399.803C329.717 399.803 330.155 399.474 330.265 398.926C330.375 398.378 330.046 397.72 329.497 397.611L325.222 396.514C324.674 396.405 324.016 396.734 323.907 397.282C323.797 397.83 324.126 398.488 324.674 398.597L328.949 399.694C328.949 399.803 329.059 399.803 329.169 399.803Z" fill="#605BFF"/>
<path d="M324.126 401.666C324.675 401.666 325.113 401.338 325.223 400.789C325.332 400.241 325.003 399.584 324.455 399.474L320.18 398.378C319.632 398.268 318.974 398.597 318.864 399.145C318.755 399.693 319.084 400.351 319.632 400.461L323.907 401.557C323.907 401.666 324.017 401.666 324.126 401.666Z" fill="#605BFF"/>
<path d="M389.244 98.2258C389.134 104.913 396.479 117.081 401.193 143.282C401.303 143.939 401.412 144.597 401.522 145.255C401.741 146.68 401.961 148.215 402.289 149.749C402.399 150.407 402.509 150.955 402.509 151.613C402.728 153.148 402.947 154.683 403.166 156.327C403.276 156.875 403.276 157.423 403.386 157.971C403.605 160.054 403.824 162.137 404.043 164.33C404.263 166.303 404.372 168.166 404.482 170.249C404.592 171.236 404.592 172.332 404.701 173.319C404.701 174.415 404.811 175.511 404.811 176.607C405.359 188.337 406.017 215.853 405.03 231.201C426.188 244.575 470.257 245.342 499.965 223.198C501.719 212.674 498.978 176.936 498.101 166.303C497.882 164.22 497.663 162.027 497.444 159.945C496.238 149.749 494.155 139.664 491.634 129.25C491.524 128.701 491.305 128.153 491.195 127.496C489.112 118.835 486.81 109.956 484.289 100.528C479.465 81.7821 470.915 71.2581 459.623 71.6966C454.361 71.8062 450.086 71.1485 446.797 70.3811C446.359 70.2715 446.03 70.1619 445.701 70.0522C441.754 68.956 439.452 67.6405 439.452 67.6405L414.896 72.3544C413.362 75.8624 411.059 78.2741 408.428 80.1377C408.1 80.357 407.88 80.5762 407.551 80.7955C399.658 86.1671 389.354 87.2633 389.244 98.2258Z" fill="#605BFF"/>
<path d="M402.289 149.749C402.399 150.407 402.508 150.955 402.508 151.613C402.727 153.147 402.947 154.682 403.166 156.326C403.276 156.875 403.276 157.423 403.385 157.971C403.604 160.054 403.824 162.136 404.043 164.329C404.262 166.302 404.372 168.166 404.481 170.249C404.591 171.235 404.591 172.332 404.701 173.318L411.388 181.759L419.171 160.602L405.03 142.294L402.289 149.749Z" fill="#605BFF"/>
<path d="M440.877 157.313L432.874 178.361L419.061 160.602L426.954 138.787L440.877 157.313Z" fill="#605BFF"/>
<path d="M462.802 154.244L454.58 175.292L440.877 157.313L448.989 135.608L462.802 154.244Z" fill="#AD2F24"/>
<path d="M484.616 151.503L476.175 172.331L462.692 154.243L471.023 132.647L484.616 151.503Z" fill="#605BFF"/>
<path d="M489.881 216.072C490.209 216.072 490.429 215.853 490.429 215.524C492.84 156.984 481.768 113.792 481.659 113.354C481.549 113.025 481.33 112.915 481.001 112.915C480.672 113.025 480.562 113.244 480.562 113.573C480.672 114.012 491.744 156.984 489.332 215.414C489.332 215.743 489.552 216.072 489.881 216.072Z" fill="white"/>
<path d="M426.517 93.6217C425.608 93.6217 424.872 92.8855 424.872 91.9774C424.872 91.0692 425.608 90.333 426.517 90.333C427.425 90.333 428.161 91.0692 428.161 91.9774C428.161 92.8855 427.425 93.6217 426.517 93.6217Z" fill="white"/>
<path d="M426.954 101.733C426.046 101.733 425.31 100.997 425.31 100.089C425.31 99.1809 426.046 98.4447 426.954 98.4447C427.862 98.4447 428.599 99.1809 428.599 100.089C428.599 100.997 427.862 101.733 426.954 101.733Z" fill="white"/>
<path d="M425.858 112.477C429.914 111.161 433.86 108.749 437.697 105.132C444.275 98.9927 448.112 91.4286 448.112 91.4286C448.221 91.0997 448.112 90.7708 447.892 90.6612C447.673 90.4419 447.344 90.5516 447.125 90.8804C447.125 90.9901 443.288 98.3349 436.93 104.364C428.379 112.367 419.499 114.45 410.51 110.613C410.181 110.503 409.962 110.613 409.852 110.942C409.743 111.271 409.853 111.6 410.181 111.709C415.334 114.011 420.596 114.34 425.748 112.696C425.748 112.477 425.748 112.477 425.858 112.477Z" fill="white"/>
<path d="M424.653 84.5227C430.463 83.4265 436.163 77.1778 436.492 76.849C436.712 76.6297 436.712 76.3008 436.492 75.972C436.273 75.6431 435.944 75.7527 435.725 75.972C435.615 76.0816 425.968 86.4959 419.829 82.6591C419.61 82.4398 419.281 82.5495 419.062 82.8783C418.952 83.2072 419.062 83.5361 419.281 83.6457C420.926 84.6323 422.789 84.8516 424.653 84.5227Z" fill="white"/>
<path d="M435.506 207.193C437.698 206.755 439.891 206.206 442.083 205.329C447.455 203.356 452.826 200.067 458.088 195.682C467.078 188.228 472.669 179.897 472.669 179.787C472.888 179.568 472.778 179.129 472.559 179.02C472.34 178.8 472.011 178.91 471.792 179.129C471.792 179.239 466.201 187.461 457.431 194.805C449.319 201.602 436.602 209.057 422.351 205.987C422.022 205.878 421.803 206.097 421.693 206.426C421.693 206.755 421.803 207.083 422.132 207.083C426.407 208.07 430.902 208.07 435.506 207.193Z" fill="white"/>
<path d="M432.435 37.9317C432.764 40.782 436.82 39.3568 438.793 37.3836C439.67 36.5066 439.232 34.5333 439.122 32.1216C439.013 29.1617 438.355 31.135 440.438 26.8596C442.63 22.2554 439.013 15.4586 436.053 15.8971C436.053 15.8971 438.574 8.99079 432.435 5.15392C426.954 1.75556 423.446 5.59242 423.446 5.59242C423.446 5.59242 421.473 -0.108064 416.43 0.0015611C411.387 0.111186 408.427 5.37317 408.427 5.37317C408.427 5.37317 404.371 1.53631 398.999 4.71542C393.628 7.89454 396.259 11.9507 396.259 11.9507C396.259 11.9507 390.339 12.2795 388.914 17.3223C387.599 21.5976 390.887 24.119 390.887 24.119C390.887 24.119 388.695 26.4211 390.12 31.0254C391.326 34.9718 394.286 34.7526 394.834 37.4932C395.163 39.028 395.82 40.782 396.368 42.0975C396.807 43.0841 398.122 44.6188 399.109 44.5092C400.425 44.2899 400.863 41.8782 400.425 40.5627C399.767 38.3702 398.999 35.1911 399.986 32.9986C401.63 29.4906 399.548 25.873 402.836 24.119C406.125 22.365 418.951 26.0922 426.296 19.5148C426.296 19.5148 426.735 24.4479 429.914 25.3249C433.093 26.2019 432.545 30.1484 432.545 33.4371C432.325 34.7526 432.435 37.9317 432.435 37.9317Z" fill="#030229"/>
<path d="M413.8 68.188L415.006 74.4366C415.883 74.8751 416.65 75.3136 417.527 75.5329C429.586 80.0275 439.781 69.7228 439.781 69.7228L435.725 48.1267L416.54 65.7763L413.8 68.188Z" fill="#FFAA8C"/>
<path d="M413.8 68.1883L415.006 74.4369C415.883 74.8754 416.65 75.3139 417.527 75.5332C426.078 70.1616 430.902 59.1991 430.902 59.1991L416.431 65.7766L413.8 68.1883Z" fill="#D0886F"/>
<path d="M400.754 41.9877C400.754 41.9877 396.369 38.4797 395.163 43.0839C393.957 47.6882 397.136 55.8004 402.179 53.3886L400.754 41.9877Z" fill="#FFAA8C"/>
<path d="M399.767 57.4452C399.767 57.4452 402.179 70.3809 415.553 67.7499C428.927 65.2286 435.943 52.9506 436.382 52.4025L436.053 49.6618L434.189 35.4106L433.203 27.8465C433.203 27.8465 432.326 14.0338 418.952 13.9242C409.195 13.9242 400.644 17.1033 397.136 22.9134C397.027 23.1327 396.917 23.2423 396.807 23.4615C395.711 25.4348 395.273 27.7369 395.492 30.2583L397.684 43.8517L398.232 47.1405L399.767 57.4452Z" fill="#FFAA8C"/>
<path d="M420.377 29.052C419.938 30.6964 418.404 31.683 416.759 31.3542C415.773 31.1349 414.676 30.9157 413.58 30.9157C411.936 30.9157 410.73 29.4905 410.84 27.8462C410.73 27.8462 416.869 26.0922 420.377 29.052Z" fill="#35252F"/>
<path d="M396.15 33.6567C397.136 35.0818 399 35.4107 400.425 34.424C401.192 33.8759 402.179 33.3278 403.275 32.8893C404.81 32.2315 405.468 30.4776 404.7 29.0524C404.7 28.9428 398.342 29.6006 396.15 33.6567Z" fill="#35252F"/>
<path d="M397.001 23.176C399.019 22.0564 400.7 22.3923 404.287 23.288C409.556 24.5195 414.6 21.6086 418.859 18.2498C423.231 14.891 426.706 17.8019 425.473 20.2651C424.24 22.8401 424.8 24.6315 427.154 27.0946C429.508 29.5577 424.576 31.9088 427.827 33.5882C429.172 34.26 429.396 35.7155 429.172 37.1709C428.948 38.7384 430.405 39.9699 431.862 39.4101C433.32 38.7384 435.001 35.4915 435.001 35.4915L433.992 27.7663C433.992 27.7663 433.095 13.6594 419.42 13.5475C409.443 13.5475 400.7 16.7943 397.113 22.7282C397.225 22.8401 397.113 22.9521 397.001 23.176Z" fill="#030229"/>
<path d="M420.052 43.0588C417.672 43.5107 415.597 43.1056 415.417 42.1539C415.236 41.2023 417.018 40.0645 419.397 39.6126C421.776 39.1606 423.851 39.5658 424.032 40.5174C424.213 41.4691 422.431 42.6069 420.052 43.0588Z" fill="#FD9983"/>
<path d="M398.123 47.1401C398.451 47.1401 398.78 47.0305 399.219 47.0305C401.631 46.592 403.385 45.4957 403.165 44.5091C402.946 43.5225 400.863 43.1936 398.561 43.6321C398.232 43.7417 397.903 43.7417 397.684 43.8513L398.123 47.1401Z" fill="#FD9983"/>
<path d="M415.471 39.3096C414.757 39.4452 413.977 38.4943 413.728 37.1858C413.48 35.8773 413.857 34.7066 414.571 34.571C415.284 34.4355 416.065 35.3863 416.313 36.6949C416.562 38.0034 416.185 39.1741 415.471 39.3096Z" fill="#35252F"/>
<path d="M402.525 41.719C401.811 41.8546 401.031 40.9038 400.782 39.5952C400.534 38.2867 400.911 37.116 401.625 36.9805C402.338 36.8449 403.118 37.7958 403.367 39.1043C403.616 40.4128 403.238 41.5835 402.525 41.719Z" fill="#35252F"/>
<path d="M408.647 51.3061C413.361 50.4291 416.43 45.6056 416.54 45.6056C416.65 45.3864 416.65 45.0575 416.321 44.8383C416.101 44.7286 415.773 44.7286 415.553 45.0575C415.334 45.3864 410.511 52.7312 403.933 49.6618C403.714 49.5521 403.385 49.6618 403.166 49.881C403.056 50.1003 403.166 50.4291 403.385 50.6484C405.358 51.5254 407.112 51.635 408.647 51.3061Z" fill="#35252F"/>
<path d="M431.229 47.9078C431.339 48.0175 433.751 51.6351 436.382 52.2928L436.053 49.5522C436.053 49.6618 433.86 49.6618 431.229 47.9078Z" fill="#35252F"/>
<path d="M431.887 38.5897C431.887 38.5897 435.724 30.6967 440.548 35.4106C444.494 39.3571 440.877 52.0735 433.97 49.2233L431.887 38.5897Z" fill="#FFAA8C"/>
<path d="M434.19 47.0303C434.409 47.0303 434.628 46.7014 434.628 46.4822C434.19 41.1106 438.246 38.4796 438.465 38.37C438.684 38.2603 438.794 37.8218 438.575 37.6026C438.465 37.3833 438.136 37.2737 437.807 37.3833C437.588 37.493 433.093 40.4528 433.532 46.4822C433.641 46.8111 433.861 47.0303 434.19 47.0303Z" fill="#35252F"/>
<path d="M438.575 42.8646C438.685 42.8646 438.904 42.755 438.904 42.5358C439.013 42.3165 438.904 41.9877 438.685 41.7684C438.465 41.6588 436.273 40.4529 434.738 41.2203C434.519 41.3299 434.3 41.6588 434.519 41.9876C434.628 42.2069 434.957 42.4261 435.286 42.2069C436.163 41.7684 437.698 42.4261 438.246 42.755C438.356 42.8646 438.465 42.8646 438.575 42.8646Z" fill="#35252F"/>
<path d="M389.353 42.0975L397.246 40.8916L397.465 41.9878L389.572 43.1937C389.243 43.1937 389.024 43.0841 388.915 42.7552C388.805 42.4263 389.024 42.2071 389.353 42.0975Z" fill="#605BFF"/>
<path d="M420.267 45.3864C425.31 44.3998 428.709 39.5763 427.722 34.4239C426.735 29.3812 421.912 25.9828 416.759 26.9694C411.717 27.9561 408.318 32.7796 409.305 37.9319C410.292 43.0843 415.225 46.373 420.267 45.3864ZM416.979 28.1753C421.473 27.2983 425.749 30.2582 426.626 34.7528C427.503 39.2474 424.543 43.5228 420.048 44.3998C415.554 45.2768 411.278 42.3169 410.401 37.8223C409.634 33.3277 412.594 29.0523 416.979 28.1753Z" fill="#605BFF"/>
<path d="M398.562 49.5519C403.605 48.5653 407.003 43.7418 406.016 38.5895C405.03 33.5467 400.206 30.1483 395.054 31.135C390.011 32.1216 386.613 36.9451 387.599 42.0974C388.696 47.1402 393.519 50.5385 398.562 49.5519ZM395.383 32.2312C399.877 31.3542 404.153 34.3141 405.03 38.8087C405.907 43.3033 402.947 47.5787 398.452 48.4557C393.958 49.3327 389.682 46.3728 388.805 41.8782C387.928 37.3836 390.888 33.1082 395.383 32.2312Z" fill="#605BFF"/>
<path d="M438.904 34.3144C439.013 34.3144 439.013 34.3144 439.123 34.2048C439.342 34.0952 439.452 33.6567 439.342 33.4374C435.724 27.6273 426.735 32.6701 426.626 32.6701C426.406 32.7797 426.297 33.1086 426.406 33.4374C426.516 33.6567 426.845 33.7663 427.174 33.6567C427.283 33.6567 435.286 29.0524 438.355 33.9856C438.465 34.3144 438.684 34.4241 438.904 34.3144Z" fill="#605BFF"/>
<path d="M409.633 44.619C409.962 44.5094 410.072 44.2901 410.072 43.9612C409.962 43.6324 409.743 43.5227 409.414 43.5227C407.441 43.8516 406.345 43.0842 406.016 42.6457C407.331 37.9319 408.537 33.1084 408.537 32.9988C408.647 32.6699 408.427 32.4506 408.099 32.341C407.77 32.2314 407.55 32.4506 407.441 32.7795C407.441 32.7795 406.125 37.8223 404.81 42.6457C404.81 42.7554 404.81 42.9746 404.919 43.0842C405.029 43.3035 406.454 45.2767 409.633 44.619Z" fill="#35252F"/>
<path d="M405.139 37.2743C405.249 37.2743 405.358 37.1647 405.468 37.055C406.674 35.1914 409.195 36.0684 409.195 36.0684C409.524 36.178 409.853 36.0684 409.853 35.7396C409.963 35.4107 409.853 35.0818 409.524 35.0818C408.318 34.6433 405.797 34.4241 404.481 36.3973C404.262 36.6165 404.372 36.9454 404.591 37.1647C404.92 37.2743 405.029 37.3839 405.139 37.2743Z" fill="#605BFF"/>
<path d="M438.356 62.3782C438.356 62.3782 447.455 62.1589 449.319 70.8193L443.838 82.9876C443.838 82.9876 438.685 75.9717 426.627 76.4102C426.517 76.4102 435.506 69.7231 438.356 62.3782Z" fill="white"/>
<path d="M419.72 76.191C419.72 76.191 415.226 74.437 414.02 69.6135C414.02 69.6135 406.017 74.2178 406.127 81.5626L413.472 85.1802C413.581 85.2899 416.103 78.822 419.72 76.191Z" fill="white"/>
<path d="M500.184 222.211C500.184 222.211 514.216 277.681 441.425 277.681C402.508 277.681 383.982 273.954 383.982 273.954C383.982 273.954 382.995 308.267 381.241 322.847C379.377 337.317 373.019 373.493 373.019 373.493L342.324 375.905C342.324 375.905 337.391 250.166 356.247 238.545C374.992 226.925 402.07 226.596 448.441 222.211C448.441 221.992 490.098 214.976 500.184 222.211Z" fill="#35252F"/>
<path d="M368.854 363.298C368.744 363.298 368.744 363.298 368.634 363.298C368.196 363.188 367.867 362.75 367.977 362.311C372.252 344.662 373.896 319.229 375.212 298.948C376.527 278.887 377.295 268.363 379.378 266.499C381.68 264.417 388.476 265.184 399.768 266.39C413.8 267.925 434.957 270.117 457.759 267.486C469.051 266.171 477.821 261.786 483.631 254.331C494.045 240.957 491.633 222.211 491.633 221.992C491.524 221.553 491.853 221.115 492.401 221.005C492.839 220.896 493.278 221.224 493.387 221.773C493.497 222.54 495.909 241.395 485.056 255.318C478.917 263.101 469.928 267.815 458.088 269.13C435.067 271.761 413.8 269.459 399.768 268.034C390.011 267.048 382.337 266.171 380.583 267.705C380.145 268.034 379.378 269.788 378.61 277.352C378.062 282.943 377.514 290.398 376.966 299.058C375.65 319.448 373.896 344.881 369.621 362.75C369.621 363.079 369.182 363.298 368.854 363.298Z" fill="#67505A"/>
<path d="M342.763 365.82C342.324 365.82 341.995 365.491 341.886 365.052C341.886 364.614 342.215 364.175 342.653 364.175L374.006 362.312C374.444 362.312 374.883 362.641 374.883 363.079C374.883 363.518 374.554 363.956 374.115 363.956L342.763 365.82Z" fill="#67505A"/>
<path d="M449.318 95.0464L449.209 97.2389L449.099 99.5411C448.989 101.076 448.88 102.72 448.77 104.255C448.441 107.434 448.222 110.504 447.784 113.683C447.564 115.217 447.455 116.862 447.235 118.397C447.016 119.931 446.797 121.466 446.578 123.11C446.139 126.18 445.591 129.249 445.043 132.319C444.495 135.388 443.837 138.348 443.179 141.308C442.85 142.733 442.412 144.268 442.083 145.693C441.645 147.118 441.316 148.543 440.877 149.859C440 152.599 439.014 155.23 438.027 157.752C436.931 160.164 435.834 162.466 434.629 164.329C433.423 166.193 432.217 167.618 431.23 168.495C430.792 168.934 430.353 169.262 430.024 169.372L429.915 169.482H429.805C429.586 169.591 429.257 169.701 429.038 169.811L428.599 170.03L428.161 170.249C427.832 170.359 427.613 170.468 427.284 170.578C426.078 171.016 424.762 171.455 423.447 171.893C422.131 172.332 420.706 172.661 419.171 172.99C416.212 173.757 413.252 174.415 410.182 174.963C407.113 175.511 403.934 176.169 400.755 176.607C399.22 176.826 397.575 177.155 396.041 177.375C394.396 177.594 392.862 177.923 391.217 178.142C388.038 178.58 384.749 179.019 381.57 179.457L371.923 180.663H371.594C365.126 181.54 360.632 187.46 361.399 193.818C362.167 199.519 366.881 203.794 372.471 204.013L373.787 204.123H375.102C375.979 204.123 376.856 204.233 377.733 204.233C379.487 204.233 381.132 204.342 382.886 204.342C386.284 204.342 389.792 204.342 393.19 204.233C394.944 204.233 396.698 204.123 398.343 204.013C400.097 203.904 401.851 203.794 403.605 203.685C407.113 203.465 410.621 203.246 414.129 202.808C417.637 202.369 421.254 201.931 424.872 201.382C428.49 200.725 432.217 199.957 436.163 198.861C436.711 198.751 437.15 198.532 437.698 198.423L438.465 198.203L439.233 197.984C439.781 197.765 440.329 197.655 440.768 197.436H440.877H440.987L441.206 197.326L441.754 197.107C442.083 196.997 442.412 196.778 442.741 196.669C445.372 195.463 447.893 193.928 449.976 192.284C454.251 188.995 457.321 185.268 459.952 181.54C462.473 177.813 464.446 174.195 466.2 170.578C467.845 166.96 469.27 163.343 470.476 159.725C471.134 157.971 471.682 156.107 472.23 154.353C472.778 152.599 473.216 150.736 473.655 148.982C474.532 145.474 475.409 141.856 476.067 138.348C476.724 134.84 477.382 131.332 477.93 127.824C478.15 126.07 478.478 124.316 478.698 122.562C478.917 120.808 479.136 119.054 479.355 117.3C479.684 113.792 480.013 110.284 480.232 106.776C480.342 105.022 480.452 103.268 480.561 101.514L480.671 98.8833V97.5678V96.0331C480.89 87.3727 473.984 80.2471 465.323 80.0279C456.882 79.9182 449.866 86.3861 449.428 94.7176L449.318 95.0464Z" fill="#FFAA8C"/>
<path d="M376.527 178.69C376.527 178.69 380.583 191.735 378.062 202.259C376.527 203.356 374.115 203.904 372.251 203.465C372.251 203.465 374.773 191.845 370.717 178.69C372.58 177.923 374.554 177.923 376.527 178.69Z" fill="#35252F"/>
<path d="M376.198 202.15C372.081 202.15 368.744 198.812 368.744 194.695C368.744 190.578 372.081 187.241 376.198 187.241C380.315 187.241 383.653 190.578 383.653 194.695C383.653 198.812 380.315 202.15 376.198 202.15Z" fill="#35252F"/>
<path d="M376.527 199.957C379.487 199.738 381.679 197.217 381.57 194.257C381.35 191.297 378.829 189.105 375.869 189.214C372.909 189.433 370.717 191.955 370.826 194.915C371.046 197.875 373.677 200.177 376.527 199.957Z" fill="white"/>
<path d="M443.837 178.252C443.947 178.252 444.057 178.252 444.166 178.142C444.385 177.923 444.385 177.594 444.166 177.375C439.343 172.003 431.669 168.714 431.34 168.605C431.011 168.495 430.792 168.605 430.573 168.933C430.463 169.262 430.573 169.482 430.902 169.701C431.011 169.701 438.685 172.99 443.289 178.252C443.508 178.252 443.618 178.252 443.837 178.252Z" fill="#D0886F"/>
<path d="M442.631 171.345C442.85 171.345 443.069 171.126 443.179 170.907C443.289 170.578 443.069 170.358 442.741 170.249C442.521 170.139 436.382 168.824 432.217 169.043C431.888 169.043 431.668 169.372 431.668 169.591C431.668 169.92 431.997 170.139 432.217 170.139C436.163 169.92 442.412 171.345 442.412 171.345C442.631 171.345 442.631 171.345 442.631 171.345Z" fill="#D0886F"/>
<path d="M484.288 97.3485C484.178 104.693 482.096 130.346 478.039 143.939L442.411 137.362C442.411 137.362 446.577 109.517 448.112 92.1961C448.55 86.6053 451.51 81.4529 456.224 78.2738C459.403 76.1909 463.569 74.7658 468.721 75.7524C479.026 77.7257 482.644 87.4823 483.85 92.4154C484.178 94.1694 484.288 95.7041 484.288 97.3485Z" fill="#605BFF"/>
<path d="M478.04 144.487C478.259 144.487 478.478 144.378 478.588 144.159C485.165 123.439 484.617 102.611 484.617 102.392C484.617 102.063 484.398 101.843 484.069 101.843C483.74 101.843 483.521 102.063 483.521 102.392C483.521 102.611 484.069 123.22 477.492 143.83C477.382 144.159 477.601 144.378 477.821 144.487C477.93 144.487 477.93 144.487 478.04 144.487Z" fill="white"/>
<path d="M442.412 137.909C442.631 137.909 442.851 137.69 442.96 137.471C445.043 125.631 447.893 99.5408 447.893 99.3216C447.893 98.9927 447.674 98.7734 447.455 98.6638C447.126 98.6638 446.907 98.8831 446.797 99.1023C446.797 99.3216 443.947 125.412 441.864 137.142C441.754 137.581 441.974 137.909 442.412 137.909C442.302 137.909 442.412 137.909 442.412 137.909Z" fill="white"/>
<path d="M497.114 355.186H398.78C396.478 355.186 394.614 353.323 394.614 351.021C394.614 348.719 396.478 346.855 398.78 346.855H497.114C499.416 346.855 501.279 348.719 501.279 351.021C501.279 353.323 499.416 355.186 497.114 355.186Z" fill="#EF37FF"/>
<path d="M389.681 418.769C389.462 418.769 389.353 418.769 389.133 418.769C386.831 418.44 385.297 416.357 385.516 414.055L403.494 280.313C403.823 278.23 405.577 276.695 407.66 276.695H487.905C489.988 276.695 491.742 278.23 492.071 280.313L509.721 414.165C510.049 416.467 508.405 418.55 506.103 418.878C503.801 419.207 501.718 417.563 501.389 415.261L484.178 285.136H411.168L393.738 415.37C393.518 417.344 391.764 418.769 389.681 418.769Z" fill="#FFD66B"/>
<path d="M430.901 280.861H483.082C499.636 280.861 517.285 271.872 519.807 255.538C523.205 233.722 524.082 212.565 523.095 193.161C521.999 171.236 510.817 150.846 493.497 137.252C493.497 137.252 506.432 203.685 497.005 245.233C491.523 268.912 430.901 280.861 430.901 280.861Z" fill="#FFD66B"/>
<path d="M294.419 205.329H420.158C420.487 205.329 420.706 205.109 420.706 204.781C420.706 200.834 417.527 197.765 413.69 197.765H294.528C294.199 197.765 293.98 197.984 293.98 198.313V204.89C293.871 205.109 294.199 205.329 294.419 205.329Z" fill="#EF37FF"/>
<path d="M252.096 135.371L267.773 201.803C268.211 203.557 269.746 204.873 271.61 204.873H368.299C370.82 204.873 372.684 202.461 372.136 200.049L356.459 133.617C356.021 131.863 354.486 130.547 352.622 130.547H255.933C253.412 130.547 251.548 132.959 252.096 135.371Z" fill="#EF37FF"/>
<path d="M302.979 167.975C303.965 173.237 309.008 177.403 314.16 177.403C319.313 177.403 322.821 173.127 321.834 167.975C320.847 162.713 315.805 158.547 310.652 158.547C305.5 158.547 301.992 162.713 302.979 167.975Z" fill="#FFD66B"/>
<path d="M349.122 131.003L365.785 205.219H368.635C371.156 205.219 373.02 202.807 372.472 200.396L356.795 133.963C356.357 132.209 354.822 130.893 352.958 130.893H349.122V131.003Z" fill="#EF37FF"/>
<path d="M158.703 210.59V215.742C158.703 218.702 161.224 221.114 164.294 221.114H549.844C552.913 221.114 555.435 218.702 555.435 215.742V210.59C555.435 207.63 552.913 205.218 549.844 205.218H164.294C161.114 205.218 158.703 207.63 158.703 210.59Z" fill="#605BFF"/>
<path d="M179.97 234.159H522.986C530.002 234.159 535.593 228.459 535.593 221.552V221.004H167.254V221.552C167.364 228.459 172.954 234.159 179.97 234.159Z" fill="#605BFF"/>
<path d="M174.49 299.276H523.425V308.375H174.49V299.276Z" fill="#605BFF"/>
<path d="M540.088 420.412L495.141 234.159H510.927L555.874 420.412H540.088Z" fill="#605BFF"/>
<path d="M159.8 420.412L204.746 234.159H188.96L144.014 420.412H159.8Z" fill="#605BFF"/>
<path d="M158.594 213.112H555.325V215.414H158.594V213.112Z" fill="#1B48CA"/>
<path d="M520.071 162.33L524.948 163.076L519.304 199.92L514.428 199.173L520.071 162.33Z" fill="#FAB623"/>
<path d="M520.075 162.357L524.898 163.124L523.802 159.397L523.254 157.424L522.158 159.068L520.075 162.357Z" fill="#FF8C64"/>
<path d="M514.815 196.551L519.692 197.298L519.277 200.007L514.4 199.26L514.815 196.551Z" fill="#35252F"/>
<path d="M514.375 201.383L518.65 202.041C518.869 202.041 518.979 201.931 518.979 201.712L519.308 199.848L514.375 199.081L514.046 200.944C514.046 201.164 514.155 201.383 514.375 201.383Z" fill="#EF452F"/>
<path d="M522.158 159.068L523.803 159.397L523.255 157.423L522.158 159.068Z" fill="#35252F"/>
<path d="M519.678 197.301L514.802 196.554L515.101 194.603L519.977 195.35L519.678 197.301Z" fill="#F68407"/>
<path d="M523.473 164.768L519.307 192.065C519.307 192.284 519.088 192.394 518.869 192.394C518.65 192.394 518.54 192.174 518.54 191.955L522.706 164.658C522.706 164.439 522.925 164.33 523.144 164.33C523.363 164.33 523.473 164.549 523.473 164.768Z" fill="#F68407"/>
<path d="M521.5 164.439L517.334 191.736C517.334 191.955 517.115 192.065 516.896 192.065C516.677 192.065 516.567 191.846 516.567 191.626L520.733 164.33C520.733 164.111 520.952 164.001 521.171 164.001C521.39 164.001 521.5 164.22 521.5 164.439Z" fill="#F68407"/>
<path d="M511.254 162.459L516.187 162.475L516.066 199.747L511.132 199.731L511.254 162.459Z" fill="#4F9D5C"/>
<path d="M511.196 162.465L516.129 162.575L514.484 158.957L513.717 157.203L512.84 158.957L511.196 162.465Z" fill="#FF8C64"/>
<path d="M511.088 197.1L516.021 197.116L516.012 199.856L511.079 199.84L511.088 197.1Z" fill="#35252F"/>
<path d="M511.414 201.931H515.689C515.909 201.931 516.018 201.821 516.018 201.602V199.738H511.085V201.602C511.085 201.821 511.195 201.931 511.414 201.931Z" fill="#EF452F"/>
<path d="M512.839 158.958H514.483L513.716 157.204L512.839 158.958Z" fill="#35252F"/>
<path d="M516.022 197.117L511.089 197.101L511.096 195.127L516.029 195.144L516.022 197.117Z" fill="#3C7341"/>
<path d="M514.923 164.329L514.813 191.955C514.813 192.174 514.594 192.284 514.485 192.284C514.265 192.284 514.156 192.064 514.156 191.955L514.265 164.329C514.265 164.11 514.485 164 514.594 164C514.704 164 514.923 164.11 514.923 164.329Z" fill="#3C7341"/>
<path d="M512.949 164.33L512.839 191.956C512.839 192.175 512.62 192.284 512.51 192.284C512.291 192.284 512.182 192.065 512.182 191.956L512.291 164.33C512.291 164.111 512.51 164.001 512.62 164.001C512.839 164.001 512.949 164.111 512.949 164.33Z" fill="#3C7341"/>
<path d="M502.663 163.026L507.547 162.332L512.791 199.235L507.907 199.93L502.663 163.026Z" fill="#1B6BFE"/>
<path d="M502.646 163.014L507.579 162.357L505.496 159.068L504.4 157.423L503.742 159.287L502.646 163.014Z" fill="#FF8C64"/>
<path d="M507.51 197.279L512.394 196.585L512.78 199.299L507.896 199.993L507.51 197.279Z" fill="#35252F"/>
<path d="M508.565 202.041L512.84 201.383C513.059 201.383 513.169 201.164 513.169 201.054L512.95 199.191L508.017 199.848L508.236 201.712C508.236 201.931 508.345 202.041 508.565 202.041Z" fill="#EF452F"/>
<path d="M503.741 159.287L505.495 159.068L504.399 157.423L503.741 159.287Z" fill="#35252F"/>
<path d="M512.426 196.507L507.542 197.201L507.264 195.247L512.148 194.553L512.426 196.507Z" fill="#1B48CA"/>
<path d="M506.591 164.33L510.428 191.626C510.428 191.846 510.319 192.065 510.099 192.065C509.88 192.065 509.661 191.955 509.661 191.736L505.824 164.439C505.824 164.22 505.934 164.001 506.153 164.001C506.372 164.001 506.591 164.111 506.591 164.33Z" fill="#1B48CA"/>
<path d="M504.728 164.659L508.564 191.955C508.564 192.174 508.455 192.394 508.236 192.394C508.016 192.394 507.797 192.284 507.797 192.065L503.96 164.768C503.96 164.549 504.07 164.33 504.289 164.33C504.508 164.22 504.618 164.439 504.728 164.659Z" fill="#1B48CA"/>
<path d="M501 177.265L501.329 179.239L501.548 181.102L501.877 183.843L502.096 185.597L502.535 188.447L502.754 190.201L503.083 192.942L503.302 194.696L503.631 197.546L503.85 199.3L504.289 202.15L504.508 203.794L504.727 205.329H524.131L524.35 203.794L524.569 202.15L524.898 199.3L525.117 197.546L525.446 194.696L525.665 192.942L526.104 190.201L526.323 188.447L526.652 185.597L526.871 183.843L527.2 181.102L527.419 179.239L527.748 177.265H501Z" fill="#EF452F"/>
<path d="M501.329 179.238L501.548 181.102H527.201L527.42 179.238H501.329Z" fill="#AD2F24"/>
<path d="M501.877 183.843L502.096 185.597H526.652L526.871 183.843H501.877Z" fill="#AD2F24"/>
<path d="M502.535 188.446L502.754 190.2H526.104L526.323 188.446H502.535Z" fill="#AD2F24"/>
<path d="M503.083 192.942L503.303 194.696H525.447L525.666 192.942H503.083Z" fill="#AD2F24"/>
<path d="M503.631 197.546L503.851 199.3H524.899L525.118 197.546H503.631Z" fill="#AD2F24"/>
<path d="M504.29 202.149L504.509 203.793H524.351L524.57 202.149H504.29Z" fill="#AD2F24"/>
<path d="M176.572 176.608H218.558V182.637H176.572V176.608Z" fill="#FAB623"/>
<path d="M175.914 200.287C180.19 205.33 192.358 205.439 196.305 205.33C197.072 205.33 197.51 205.33 197.51 205.33C197.51 205.33 213.954 206.426 219.107 200.287C221.957 196.779 220.422 191.627 218.449 187.79C218.01 186.913 217.462 186.036 217.024 185.268C216.037 183.624 215.27 182.637 215.27 182.637H179.751C179.751 182.637 178.107 184.83 176.572 187.68C174.709 191.627 173.064 196.779 175.914 200.287Z" fill="#FAB623"/>
<path d="M211.104 195.573C212.858 201.164 206.28 205.439 197.51 205.22C197.51 205.22 213.954 206.316 219.107 200.177C221.957 196.669 220.422 191.517 218.449 187.68C218.449 187.571 218.339 187.461 218.339 187.461C218.339 187.351 218.23 187.242 218.23 187.242C217.901 186.584 217.462 185.926 217.133 185.268C216.147 183.624 215.379 182.637 215.379 182.637H179.861C179.861 182.637 178.217 184.83 176.682 187.68H192.577C196.524 187.68 200.47 188.448 204.198 189.873C207.267 191.188 210.337 193.052 211.104 195.573Z" fill="#F68407"/>
<path d="M182.711 171.235C183.149 172.003 183.697 172.661 184.136 173.209C185.561 175.182 186.767 176.497 186.876 176.607H208.253C208.363 176.497 209.459 175.182 210.994 173.209C211.432 172.551 211.98 171.893 212.419 171.235C215.05 167.289 217.791 162.027 217.023 158.08C216.804 156.875 216.475 155.998 215.927 155.449C215.708 155.121 215.488 154.901 215.16 154.792C212.857 153.476 209.349 156.546 208.253 156.436C206.718 156.326 209.24 148.762 212.748 143.391C216.037 138.348 218.119 131.771 214.173 129.359C214.063 129.249 213.844 129.14 213.734 129.14C213.625 129.03 213.406 129.03 213.296 128.92C208.144 127.057 206.28 133.963 204.088 132.976C201.895 131.99 208.582 109.736 198.168 109.736C198.058 109.736 197.839 109.736 197.62 109.736C197.4 109.736 197.291 109.736 197.072 109.736C186.657 109.736 193.344 132.099 191.152 132.976C188.959 133.963 187.205 126.947 181.943 128.92C181.834 129.03 181.614 129.03 181.505 129.14C181.395 129.249 181.176 129.249 181.066 129.359C177.01 131.771 179.203 138.458 182.491 143.391C185.999 148.762 188.411 156.217 186.986 156.436C185.89 156.546 182.382 153.367 180.08 154.792C179.86 154.901 179.532 155.121 179.312 155.449C178.874 155.998 178.545 156.875 178.216 158.08C177.339 162.027 180.08 167.289 182.711 171.235Z" fill="#4F9D5C"/>
<path d="M197.071 109.737V176.608H198.058V109.737C197.948 109.737 197.729 109.737 197.51 109.737C197.4 109.737 197.181 109.737 197.071 109.737Z" fill="#3C7341"/>
<path d="M197.181 148.106L197.51 148.435L197.839 148.764L197.949 148.654L214.392 129.689L213.954 129.36C213.844 129.25 213.625 129.141 213.515 129.141L197.949 147.119L197.401 147.667L197.181 148.106Z" fill="#3C7341"/>
<path d="M197.181 175.511L197.51 175.84L197.838 176.168L197.948 176.059L215.817 155.449C215.598 155.121 215.378 154.901 215.05 154.792L197.948 174.524L197.4 175.072L197.181 175.511Z" fill="#3C7341"/>
<path d="M180.628 129.579L197.072 148.544L197.182 148.654L197.51 148.325L197.839 147.996L197.51 147.558L196.962 147.009L181.396 129.031C181.286 129.141 181.067 129.141 180.957 129.25L180.628 129.579Z" fill="#3C7341"/>
<path d="M179.093 155.34L196.962 175.949L197.072 176.059L197.401 175.73L197.729 175.401L197.401 174.963L196.853 174.414L179.751 154.682C179.641 154.901 179.422 155.121 179.093 155.34Z" fill="#3C7341"/>
<path opacity="0.2" d="M619.675 423.811C589.585 423.811 565.191 421.897 565.191 419.535C565.191 417.174 589.585 415.26 619.675 415.26C649.765 415.26 674.158 417.174 674.158 419.535C674.158 421.897 649.765 423.811 619.675 423.811Z" fill="#605BFF"/>
<path d="M580.649 400.9L572.207 274.283H669.883L661.332 400.9H580.649Z" fill="#EF452F"/>
<path d="M572.975 286.232L668.677 291.713L669.335 281.737H572.646L572.975 286.232Z" fill="#AD2F24"/>
<path d="M568.918 281.737H673.061C674.487 281.737 675.692 280.531 675.692 279.106V273.296C675.692 271.871 674.487 270.665 673.061 270.665H568.918C567.493 270.665 566.287 271.871 566.287 273.296V279.106C566.287 280.531 567.493 281.737 568.918 281.737Z" fill="#EF5F44"/>
<path d="M583.169 302.019L585.581 344.334H656.508L658.92 302.019H583.169Z" fill="#AD2F24"/>
<path d="M620.99 328.437C619.052 328.437 617.482 326.866 617.482 324.929C617.482 322.992 619.052 321.421 620.99 321.421C622.927 321.421 624.498 322.992 624.498 324.929C624.498 326.866 622.927 328.437 620.99 328.437Z" fill="#EF452F"/>
<path d="M586.458 354.31L588.65 392.788H653.329L655.521 354.31H586.458Z" fill="#AD2F24"/>
<path d="M620.99 378.427C619.052 378.427 617.482 376.857 617.482 374.919C617.482 372.982 619.052 371.411 620.99 371.411C622.927 371.411 624.498 372.982 624.498 374.919C624.498 376.857 622.927 378.427 620.99 378.427Z" fill="#EF452F"/>
<path d="M631.405 400.9C631.624 400.9 631.843 400.9 631.953 400.9C641.709 401.01 650.151 407.807 652.343 417.125L653.001 419.756H660.565L661.332 400.9H631.405Z" fill="#AD2F24"/>
<path d="M610.577 400.9C610.357 400.9 610.138 400.9 610.029 400.9C600.272 401.01 591.831 407.806 589.638 417.124L588.981 419.755H581.416L580.649 400.9H610.577Z" fill="#AD2F24"/>
<path d="M640.503 207.412C640.503 207.412 649.054 209.823 658.482 197.655C665.278 188.775 677.337 169.92 694 169.591C694 169.591 674.268 161.04 656.837 169.701C639.297 178.471 629.979 201.053 640.503 207.412Z" fill="#4F9D5C"/>
<path d="M635.351 242.711C635.571 242.711 635.79 242.492 635.79 242.272C635.79 242.163 635.242 230.323 637.544 216.949C639.736 204.561 644.779 188.337 656.947 180.773C657.167 180.663 657.276 180.334 657.057 180.115C656.947 179.896 656.619 179.786 656.399 180.005C650.918 183.404 646.423 188.775 642.915 196.12C640.175 201.93 637.982 208.837 636.667 216.839C634.255 230.323 634.913 242.272 634.913 242.382C634.913 242.492 635.132 242.711 635.351 242.711Z" fill="#3C7341"/>
<path d="M633.926 180.444C633.926 180.444 625.266 178.471 622.964 163.123C621.319 152.051 619.894 129.688 605.533 121.356C605.533 121.356 627.02 123.439 637.982 139.554C648.945 155.669 646.204 180.005 633.926 180.444Z" fill="#4F9D5C"/>
<path d="M622.086 243.698C622.305 243.698 622.415 243.589 622.525 243.369C622.634 243.26 628.335 227.474 632.501 208.07C634.912 196.669 636.447 186.255 636.776 177.046C637.324 165.536 636.118 155.998 633.378 148.763C633.268 148.544 633.049 148.434 632.829 148.544C632.61 148.654 632.501 148.873 632.61 149.092C638.749 165.426 635.46 190.092 631.624 207.851C627.458 227.255 621.757 242.931 621.757 243.04C621.648 243.26 621.757 243.589 621.977 243.589C621.977 243.698 621.977 243.698 622.086 243.698Z" fill="#3C7341"/>
<path d="M618.797 187.898C618.797 187.898 610.027 189.104 602.354 175.62C596.872 165.864 587.554 145.583 571.11 142.843C571.11 142.843 591.939 137.142 607.944 148.214C624.059 159.506 630.089 183.075 618.797 187.898Z" fill="#4F9D5C"/>
<path d="M617.482 243.697C617.701 243.697 617.92 243.588 617.92 243.369C617.92 243.259 620.88 228.35 620.88 210.591C620.88 200.176 620.003 190.749 618.139 182.636C615.837 172.551 612 164.439 606.848 158.519C606.629 158.3 606.409 158.3 606.19 158.519C605.971 158.738 605.971 158.958 606.19 159.177C617.701 172.222 620.113 194.257 620.003 210.591C619.893 228.24 617.043 243.04 617.043 243.149C616.933 243.369 617.153 243.588 617.482 243.697C617.372 243.697 617.482 243.697 617.482 243.697Z" fill="#3C7341"/>
<path d="M603.669 208.508C603.669 208.508 595.228 211.468 585.143 199.738C577.798 191.297 564.643 173.209 547.98 173.866C547.98 173.866 567.164 164.11 585.143 171.893C603.121 179.567 613.755 201.602 603.669 208.508Z" fill="#4F9D5C"/>
<path d="M611.891 243.697C612.11 243.697 612.33 243.478 612.33 243.259C612.33 243.149 612.549 232.954 609.479 220.347C607.616 213.003 605.094 206.206 601.806 200.286C597.64 192.832 592.378 186.693 586.129 182.088C585.91 181.979 585.691 181.979 585.472 182.198C585.362 182.417 585.362 182.636 585.581 182.856C599.503 193.27 605.752 209.166 608.602 220.676C611.672 233.173 611.453 243.149 611.453 243.259C611.453 243.478 611.562 243.697 611.891 243.697Z" fill="#3C7341"/>
<path d="M584.595 254.221C584.595 255.536 584.814 256.852 585.253 258.277C587.007 264.197 592.049 268.582 598.188 269.459C613.097 271.542 628.445 271.432 644.231 269.349C651.137 268.472 656.728 263.21 657.824 256.304C658.043 255.098 658.043 254.002 657.934 252.796C657.605 248.849 655.522 245.013 651.576 241.176H590.953C586.568 245.341 584.595 249.726 584.595 254.221Z" fill="#FFD66B"/>
<path d="M619.017 260.25C638.311 260.25 650.808 256.523 657.824 253.344C658.043 253.234 658.153 253.015 658.043 252.796C657.934 252.577 657.714 252.467 657.495 252.577C650.479 255.646 638.201 259.373 619.017 259.373C605.423 259.373 594.022 257.51 585.143 253.892C584.923 253.783 584.595 253.892 584.595 254.111C584.485 254.331 584.595 254.66 584.814 254.66C593.803 258.387 605.314 260.25 619.017 260.25Z" fill="#F68407"/>
<path d="M40.7472 118.616H47.9824V193.599H40.7472V118.616Z" fill="#F2B441"/>
<path d="M40.6376 122.233V128.701L47.9824 130.894V122.233H40.6376Z" fill="#F28D32"/>
<path d="M4.89932 120.918C31.0996 124.974 57.4096 124.974 83.6099 120.918L64.9737 69.2849C51.1609 66.8731 37.3482 66.8731 23.6451 69.2849L4.89932 120.918Z" fill="#1B6BFE"/>
<path d="M44.5836 116.972C56.5327 116.972 68.3722 116.314 80.6501 115.108C81.0886 115.108 81.3079 114.67 81.3079 114.341C81.3079 113.902 80.8694 113.683 80.5405 113.683C56.3135 116.204 33.2923 116.204 8.18822 113.683C7.74973 113.683 7.42084 113.902 7.42084 114.341C7.42084 114.779 7.64006 115.108 8.07856 115.108C20.5758 116.314 32.6345 116.972 44.5836 116.972Z" fill="#1B48CA"/>
<path d="M70.4547 115.985C70.5643 115.985 70.5643 115.985 70.6739 115.985C71.1124 115.876 71.3317 115.437 71.2221 115.108L59.7115 68.9564C59.6018 68.5179 59.1633 68.2987 58.8344 68.4083C58.3959 68.5179 58.1767 68.9564 58.2863 69.2853L69.7969 115.437C69.7969 115.766 70.1258 115.985 70.4547 115.985Z" fill="#1B48CA"/>
<path d="M18.0537 115.985C18.3826 115.985 18.7114 115.766 18.8211 115.437L30.2221 69.2853C30.3317 68.8468 30.1124 68.5179 29.6739 68.4083C29.2354 68.2987 28.9066 68.5179 28.797 68.9564L17.396 115.108C17.2863 115.547 17.5056 115.876 17.9441 115.985C17.9441 115.985 17.9441 115.985 18.0537 115.985Z" fill="#1B48CA"/>
<path d="M44.2541 116.972C44.6926 116.972 45.0215 116.643 45.0215 116.204V68.2983C45.0215 67.8598 44.6926 67.5309 44.2541 67.5309C43.8156 67.5309 43.4867 67.8598 43.4867 68.2983V116.314C43.5963 116.643 43.9252 116.972 44.2541 116.972Z" fill="#1B48CA"/>
<path d="M26.4965 186.145V193.6H62.1245V186.145L44.2557 181.98L26.4965 186.145Z" fill="#1B48CA"/>
<path d="M68.9199 183.733H67.6044V181.76L116.387 181.87C118.032 181.87 119.457 182.527 120.553 183.624C121.649 184.72 122.307 186.145 122.307 187.789C122.307 191.078 119.676 193.599 116.387 193.599L67.6044 193.49V191.845H68.9199V183.733Z" fill="#4F9D5C"/>
<path d="M68.5927 183.734V191.846L113.32 191.955C115.512 191.955 117.266 190.092 117.266 187.899C117.266 186.803 116.828 185.816 116.06 185.049C115.293 184.282 114.306 183.843 113.21 183.843L68.5927 183.734Z" fill="white"/>
<path d="M68.5924 185.817V187.023L112.223 187.132C112.552 187.132 112.881 186.803 112.881 186.474C112.881 186.146 112.552 185.817 112.223 185.817H68.5924Z" fill="#EAD6BF"/>
<path d="M68.5924 188.886V190.092L112.223 190.201C112.552 190.201 112.881 189.872 112.881 189.544C112.881 189.215 112.552 188.886 112.223 188.886H68.5924Z" fill="#EAD6BF"/>
<path d="M73.3049 172.004H71.9894V170.031L120.772 170.14C122.417 170.14 123.842 170.798 124.938 171.894C126.034 172.99 126.692 174.416 126.692 176.06C126.692 179.349 124.061 181.87 120.772 181.87L71.9894 181.76V180.116H73.3049V172.004Z" fill="#EF452F"/>
<path d="M72.9765 172.003V180.116L117.703 180.225C119.896 180.225 121.65 178.362 121.65 176.169C121.65 175.073 121.211 174.086 120.444 173.319C119.677 172.551 118.69 172.113 117.594 172.113L72.9765 172.003Z" fill="white"/>
<path d="M72.9779 174.087V175.293L116.609 175.403C116.937 175.403 117.266 175.074 117.266 174.745C117.266 174.416 116.937 174.087 116.609 174.087H72.9779Z" fill="#EAD6BF"/>
<path d="M72.9779 177.156V178.362L116.609 178.472C116.937 178.472 117.266 178.143 117.266 177.814C117.266 177.485 116.937 177.156 116.609 177.156H72.9779Z" fill="#EAD6BF"/>
<path d="M64.8647 160.274H63.5493V158.301L112.332 158.41C113.977 158.41 115.402 159.068 116.498 160.164C117.594 161.261 118.252 162.686 118.252 164.33C118.252 167.619 115.621 170.14 112.332 170.14L63.5493 170.031V168.386H64.8647V160.274Z" fill="#1B6BFE"/>
<path d="M64.5353 160.274V168.386L109.262 168.496C111.455 168.496 113.209 166.632 113.209 164.439C113.209 163.343 112.77 162.357 112.003 161.589C111.235 160.822 110.249 160.383 109.153 160.383L64.5353 160.274Z" fill="white"/>
<path d="M64.5353 162.357V163.563L108.166 163.672C108.495 163.672 108.824 163.344 108.824 163.015C108.824 162.686 108.495 162.357 108.166 162.357H64.5353Z" fill="#EAD6BF"/>
<path d="M64.5353 165.426V166.632L108.166 166.742C108.495 166.742 108.824 166.413 108.824 166.084C108.824 165.755 108.495 165.426 108.166 165.426H64.5353Z" fill="#EAD6BF"/>
<path opacity="0.2" d="M68.5912 425.346C30.7512 425.346 0.0757904 422.647 0.0757904 419.317C0.0757904 415.987 30.7512 413.287 68.5912 413.287C106.431 413.287 137.107 415.987 137.107 419.317C137.107 422.647 106.431 425.346 68.5912 425.346Z" fill="#605BFF"/>
<path d="M8.84526 198.094L23.7542 419.536H113.537L128.446 198.094H8.84526Z" fill="#FAB623"/>
<path d="M9.83193 212.674L127.021 219.471L127.898 207.193H9.39341L9.83193 212.674Z" fill="#F68407"/>
<path d="M4.35147 207.193H132.941C134.476 207.193 135.682 205.987 135.682 204.452V196.34C135.682 194.805 134.476 193.599 132.941 193.599H4.35147C2.81673 193.599 1.61086 194.805 1.61086 196.34V204.452C1.61086 205.987 2.81673 207.193 4.35147 207.193Z" fill="#EDC85A"/>
<path d="M22.2204 232.188L25.1802 283.93H112.113L115.073 232.188H22.2204Z" fill="#F68407"/>
<path d="M68.5913 264.636C66.1696 264.636 64.2063 262.673 64.2063 260.251C64.2063 257.829 66.1696 255.866 68.5913 255.866C71.0131 255.866 72.9763 257.829 72.9763 260.251C72.9763 262.673 71.0131 264.636 68.5913 264.636Z" fill="#FAB623"/>
<path d="M26.2762 296.099L29.0168 343.347H108.275L111.016 296.099H26.2762Z" fill="#F68407"/>
<path d="M68.5913 325.917C66.1696 325.917 64.2063 323.953 64.2063 321.532C64.2063 319.11 66.1696 317.147 68.5913 317.147C71.0131 317.147 72.9763 319.11 72.9763 321.532C72.9763 323.953 71.0131 325.917 68.5913 325.917Z" fill="#FAB623"/>
<path d="M29.7846 355.296L32.306 398.707H104.987L107.399 355.296H29.7846Z" fill="#F68407"/>
<path d="M68.5913 381.386C66.1696 381.386 64.2063 379.423 64.2063 377.001C64.2063 374.58 66.1696 372.616 68.5913 372.616C71.0131 372.616 72.9763 374.58 72.9763 377.001C72.9763 379.423 71.0131 381.386 68.5913 381.386Z" fill="#FAB623"/>
</svg>
